<svg width="16" height="16" viewBox="0 0 16 16" fill="none" xmlns="http://www.w3.org/2000/svg">
<g opacity="0.5">
<path d="M5.13656 12.1624C5.65491 12.1624 6.07958 12.5961 6.07958 13.1319C6.07958 13.6613 5.65491 14.095 5.13656 14.095C4.61197 14.095 4.1873 13.6613 4.1873 13.1319C4.1873 12.5961 4.61197 12.1624 5.13656 12.1624ZM12.1623 12.1624C12.6807 12.1624 13.1054 12.5961 13.1054 13.1319C13.1054 13.6613 12.6807 14.095 12.1623 14.095C11.6377 14.095 11.2131 13.6613 11.2131 13.1319C11.2131 12.5961 11.6377 12.1624 12.1623 12.1624ZM2.23151 1.59505L2.29515 1.60043L3.78462 1.82941C3.99695 1.86832 4.15308 2.04627 4.17181 2.26313L4.29047 3.69184C4.30921 3.89658 4.47158 4.04965 4.67143 4.04965H13.1055C13.4864 4.04965 13.7362 4.1836 13.986 4.47699C14.2358 4.77039 14.2796 5.19135 14.2234 5.5734L13.6301 9.75749C13.5177 10.5618 12.8432 11.1543 12.05 11.1543H5.23661C4.40601 11.1543 3.71904 10.5044 3.65035 9.66245L3.07579 2.7096L2.13278 2.54377C1.88297 2.49912 1.70811 2.25037 1.75183 1.99524C1.79554 1.73437 2.0391 1.56153 2.29515 1.60043L2.23151 1.59505ZM11.0508 6.40894H9.32093C9.05863 6.40894 8.85254 6.61942 8.85254 6.88731C8.85254 7.14881 9.05863 7.36567 9.32093 7.36567H11.0508C11.3131 7.36567 11.5192 7.14881 11.5192 6.88731C11.5192 6.61942 11.3131 6.40894 11.0508 6.40894Z" fill="black"/>
</g>
</svg>
