<svg width="22" height="23" viewBox="0 0 22 23" fill="none" xmlns="http://www.w3.org/2000/svg">
<g opacity="0.5" filter="url(#filter0_d)">
<path d="M11.0076 1.97388C14.5576 1.97388 17.2451 4.88449 17.2451 8.21449C17.2451 12.0765 14.0951 14.4739 10.9951 14.4739C9.97012 14.4739 8.83262 14.1985 7.92012 13.6602C7.60137 13.4661 7.33262 13.3222 6.98887 13.4348L5.72637 13.8104C5.40762 13.9105 5.12012 13.6602 5.21387 13.3221L5.63262 11.92C5.70137 11.726 5.68887 11.5194 5.58887 11.3567C5.05137 10.3677 4.74512 9.28484 4.74512 8.23327C4.74512 4.94083 7.37637 1.97388 11.0076 1.97388ZM13.8639 7.43832C13.4201 7.43832 13.0639 7.79511 13.0639 8.23953C13.0639 8.67768 13.4201 9.04073 13.8639 9.04073C14.3076 9.04073 14.6639 8.67768 14.6639 8.23953C14.6639 7.79511 14.3076 7.43832 13.8639 7.43832ZM10.9826 7.43832C10.5451 7.43206 10.1826 7.79511 10.1826 8.23327C10.1826 8.67768 10.5389 9.03447 10.9826 9.04073C11.4264 9.04073 11.7826 8.67768 11.7826 8.23953C11.7826 7.79511 11.4264 7.43832 10.9826 7.43832ZM8.10137 7.43832C7.65762 7.43832 7.30137 7.79511 7.30137 8.23953C7.30137 8.67768 7.66387 9.04073 8.10137 9.04073C8.54512 9.03447 8.90137 8.67768 8.90137 8.23953C8.90137 7.79511 8.54512 7.43832 8.10137 7.43832Z" fill="black"/>
</g>
<defs>
<filter id="filter0_d" x="-0.504883" y="0.723877" width="23" height="23" filterUnits="userSpaceOnUse" color-interpolation-filters="sRGB">
<feFlood flood-opacity="0" result="BackgroundImageFix"/>
<feColorMatrix in="SourceAlpha" type="matrix" values="0 0 0 0 0 0 0 0 0 0 0 0 0 0 0 0 0 0 127 0"/>
<feOffset dy="4"/>
<feGaussianBlur stdDeviation="2"/>
<feColorMatrix type="matrix" values="0 0 0 0 0 0 0 0 0 0 0 0 0 0 0 0 0 0 0.25 0"/>
<feBlend mode="normal" in2="BackgroundImageFix" result="effect1_dropShadow"/>
<feBlend mode="normal" in="SourceGraphic" in2="effect1_dropShadow" result="shape"/>
</filter>
</defs>
</svg>
