<svg width="21" height="23" viewBox="0 0 21 23" fill="none" xmlns="http://www.w3.org/2000/svg">
<g opacity="0.5" filter="url(#filter0_d)">
<path d="M13.2891 1.6189C15.3485 1.6189 16.4951 2.80309 16.4951 4.83218V11.7045C16.4951 13.7668 15.3485 14.9244 13.2891 14.9244H7.70178C5.67512 14.9244 4.49512 13.7668 4.49512 11.7045V4.83218C4.49512 2.80309 5.67512 1.6189 7.70178 1.6189H13.2891ZM7.88178 10.7598C7.68178 10.7398 7.48845 10.833 7.38178 11.0059C7.27512 11.1723 7.27512 11.3918 7.38178 11.5648C7.48845 11.7311 7.68178 11.8309 7.88178 11.8043H13.1085C13.3745 11.7777 13.5751 11.5508 13.5751 11.2854C13.5751 11.0126 13.3745 10.7864 13.1085 10.7598H7.88178ZM13.1085 7.72547H7.88178C7.59445 7.72547 7.36178 7.95898 7.36178 8.24505C7.36178 8.53112 7.59445 8.76396 7.88178 8.76396H13.1085C13.3951 8.76396 13.6285 8.53112 13.6285 8.24505C13.6285 7.95898 13.3951 7.72547 13.1085 7.72547ZM9.87445 4.71243H7.88178V4.71908C7.59445 4.71908 7.36178 4.95193 7.36178 5.238C7.36178 5.52407 7.59445 5.75692 7.88178 5.75692H9.87445C10.1618 5.75692 10.3951 5.52407 10.3951 5.23068C10.3951 4.94528 10.1618 4.71243 9.87445 4.71243Z" fill="black"/>
</g>
<defs>
<filter id="filter0_d" x="-1.50488" y="0.28833" width="24" height="23.9666" filterUnits="userSpaceOnUse" color-interpolation-filters="sRGB">
<feFlood flood-opacity="0" result="BackgroundImageFix"/>
<feColorMatrix in="SourceAlpha" type="matrix" values="0 0 0 0 0 0 0 0 0 0 0 0 0 0 0 0 0 0 127 0"/>
<feOffset dy="4"/>
<feGaussianBlur stdDeviation="2"/>
<feColorMatrix type="matrix" values="0 0 0 0 0 0 0 0 0 0 0 0 0 0 0 0 0 0 0.25 0"/>
<feBlend mode="normal" in2="BackgroundImageFix" result="effect1_dropShadow"/>
<feBlend mode="normal" in="SourceGraphic" in2="effect1_dropShadow" result="shape"/>
</filter>
</defs>
</svg>
