<svg width="17" height="17" viewBox="0 0 17 17" fill="none" xmlns="http://www.w3.org/2000/svg">
<g opacity="0.5">
<path d="M6.52837 1.96166C7.14903 1.9551 7.72837 2.24177 8.10837 2.72844L8.69503 3.50844C8.8817 3.74177 9.1617 3.88177 9.4617 3.88177H11.5084C13.9684 3.88177 15.1684 5.1951 15.1617 7.88844V11.1351C15.1617 13.7084 13.575 15.2951 10.995 15.2951H5.98837C3.4217 15.2951 1.82837 13.7084 1.82837 11.1284V6.12177C1.82837 3.36177 3.05504 1.96166 5.47504 1.96166H6.52837ZM11.5817 9.82177H5.40837C5.12837 9.82177 4.90837 10.0418 4.90837 10.3218C4.90837 10.5951 5.12837 10.8218 5.40837 10.8218H11.5817C11.855 10.8218 12.075 10.5951 12.075 10.3218C12.075 10.0418 11.855 9.82177 11.5817 9.82177Z" fill="black"/>
</g>
</svg>
