<svg width="40" height="36" viewBox="0 0 40 36" fill="none" xmlns="http://www.w3.org/2000/svg">
<path fill-rule="evenodd" clip-rule="evenodd" d="M32.262 5.06917L37.0676 7.20595C38.1733 7.69755 39.0756 9.08994 39.0728 10.3L39.0385 24.768C39.0357 25.991 38.1132 27.3848 36.9887 27.8653L23.1405 33.7833C22.4103 34.0953 21.2158 34.0953 20.4856 33.7832L15.5847 31.6881C16.0816 30.5705 16.3633 29.3369 16.3633 28.037C16.3633 23.0598 12.3141 19.0105 7.33745 19.0105C6.37551 19.0105 5.44976 19.1651 4.57969 19.4451L4.55805 10.3001C4.55524 9.09 5.45762 7.69761 6.56334 7.20595L20.4432 1.03436C21.1979 0.698793 22.4329 0.698793 23.1877 1.03436L28.2144 3.26944C28.4533 3.37565 28.4568 3.7134 28.2202 3.82462L12.7441 11.1002C12.3159 11.3015 12.0426 11.7321 12.0426 12.2052V15.7029C12.0426 16.1854 12.3267 16.6226 12.7675 16.8186L14.1116 17.4162C14.5153 17.5958 14.9701 17.3002 14.9701 16.8584V13.5069C14.9701 13.0338 15.2435 12.6032 15.6717 12.4019L31.2464 5.07987C31.5673 4.929 31.938 4.9251 32.262 5.06917ZM0 28.0369C0 23.9846 3.28505 20.6995 7.33733 20.6995C11.3896 20.6995 14.6747 23.9846 14.6747 28.0369C14.6747 32.0892 11.3896 35.3743 7.33733 35.3743C3.28505 35.3743 0 32.0892 0 28.0369ZM4.09911 24.735C4.54342 24.2907 5.26379 24.2907 5.7081 24.735L7.36545 26.3923L9.0228 24.735C9.46712 24.2907 10.1875 24.2907 10.6318 24.735C11.0761 25.1793 11.0761 25.8997 10.6318 26.344L8.97444 28.0013L10.6318 29.6587C11.0761 30.103 11.0761 30.8234 10.6318 31.2677C10.1875 31.712 9.4671 31.712 9.02279 31.2677L7.36545 29.6103L5.7081 31.2677C5.26379 31.712 4.54342 31.712 4.09911 31.2677C3.6548 30.8233 3.6548 30.103 4.09911 29.6587L5.75645 28.0013L4.09911 26.344C3.6548 25.8997 3.6548 25.1793 4.09911 24.735Z" fill="white"/>
</svg>
