<svg width="40" height="36" viewBox="0 0 40 36" fill="none" xmlns="http://www.w3.org/2000/svg">
<path d="M37.0676 7.20595L32.262 5.06917C31.938 4.9251 31.5673 4.929 31.2464 5.07987L15.6717 12.4019C15.2435 12.6032 14.9701 13.0338 14.9701 13.5069V16.8584C14.9701 17.3002 14.5153 17.5958 14.1116 17.4162L12.7675 16.8186C12.3267 16.6226 12.0426 16.1854 12.0426 15.7029V12.2052C12.0426 11.7321 12.3159 11.3015 12.7441 11.1002L28.2202 3.82462C28.4568 3.7134 28.4533 3.37565 28.2144 3.26944L23.1877 1.03436C22.4329 0.698793 21.1979 0.698793 20.4432 1.03436L6.56334 7.20595C5.45762 7.69762 4.55524 9.09 4.55805 10.3001L4.57969 19.4451C5.44976 19.1651 6.37551 19.0105 7.33745 19.0105C12.3141 19.0105 16.3633 23.0598 16.3633 28.037C16.3633 29.3369 16.0816 30.5705 15.5847 31.6881L20.4856 33.7832C21.2158 34.0953 22.4103 34.0953 23.1405 33.7833L36.9887 27.8653C38.1132 27.3848 39.0357 25.991 39.0385 24.768L39.0728 10.3C39.0756 9.08994 38.1733 7.69755 37.0676 7.20595ZM7.33733 20.6995C3.28505 20.6995 0 23.9846 0 28.0369C0 32.0892 3.28505 35.3743 7.33733 35.3743C11.3896 35.3743 14.6747 32.0892 14.6747 28.0369C14.6747 23.9846 11.3896 20.6995 7.33733 20.6995ZM12.1318 26.5294L7.61645 31.609C7.39402 31.8592 7.08431 31.9878 6.77237 31.9878C6.52458 31.9878 6.27546 31.9067 6.06765 31.7402L3.2456 29.4826C2.75885 29.0935 2.67981 28.383 3.06945 27.8963C3.45858 27.4091 4.16936 27.3302 4.65605 27.7199L6.64117 29.3079L10.4446 25.029C10.8583 24.5633 11.5721 24.5209 12.0381 24.9353C12.5041 25.3499 12.546 26.0631 12.1318 26.5294Z" fill="white"/>
</svg>
