<svg width="16" height="16" viewBox="0 0 16 16" fill="none" xmlns="http://www.w3.org/2000/svg">
<g opacity="0.5">
<path d="M14.1263 8.35449C14.1713 8.37981 14.1803 8.43348 14.1821 8.45394L14.1826 8.46209L14.1326 11.6899C14.1326 12.9775 13.1349 14.0275 11.8787 14.0918L11.7564 14.095H4.22761C2.95549 14.095 1.9181 13.0852 1.85451 11.8138L1.85142 11.6899L1.80765 8.46209C1.80765 8.46209 1.80765 8.38614 1.86393 8.35449C1.91395 8.32285 1.97648 8.36082 1.98274 8.36715C3.24587 9.21525 4.76538 9.77854 6.35992 10.0127C6.58504 10.0444 6.81015 9.89879 6.87268 9.67094C7.00165 9.18439 7.39992 8.8536 7.88716 8.81415L7.98574 8.81019H8.0045C8.53601 8.81019 8.97998 9.15196 9.11755 9.67094C9.18008 9.89879 9.4052 10.0444 9.63031 10.0127C11.2249 9.77854 12.7444 9.21525 14.0075 8.36715C14.0075 8.36715 14.02 8.36082 14.0325 8.35449C14.0575 8.34184 14.095 8.33551 14.1263 8.35449ZM7.99199 9.71525C7.75698 9.71525 7.55874 9.89606 7.52734 10.1261L7.52301 10.1899V11.0064C7.52301 11.2722 7.73561 11.4811 7.99199 11.4811C8.23274 11.4811 8.42619 11.3056 8.45676 11.0716L8.46098 11.0064V10.1899C8.46098 9.93044 8.25462 9.71525 7.99199 9.71525ZM8.79864 1.59497C9.73661 1.59497 10.5057 2.31016 10.6246 3.22787H11.8627C13.1758 3.22787 14.2451 4.31015 14.2451 5.63925C14.2451 5.63925 14.2076 6.20191 14.1951 6.98545C14.1938 7.04747 14.1638 7.10823 14.1144 7.14494C13.8137 7.36709 13.5385 7.55064 13.5135 7.56329C12.4755 8.25949 11.2693 8.74936 9.98424 8.99303C9.90044 9.00949 9.8179 8.96582 9.77538 8.89114C9.4152 8.26709 8.74237 7.86076 7.99199 7.86076C7.24662 7.86076 6.56753 8.26266 6.19672 8.88734C6.15357 8.96076 6.07228 9.00316 5.98911 8.98734C4.71473 8.74304 3.5085 8.2538 2.47673 7.56962L1.87643 7.1519C1.82641 7.12026 1.79514 7.0633 1.79514 7.00001C1.77638 6.67722 1.74512 5.63925 1.74512 5.63925C1.74512 4.31015 2.8144 3.22787 4.12756 3.22787H5.35942C5.47823 2.31016 6.24737 1.59497 7.18534 1.59497H8.79864ZM8.79864 2.54433H7.18534C6.76638 2.54433 6.40995 2.83547 6.3099 3.22787H9.67408C9.57403 2.83547 9.2176 2.54433 8.79864 2.54433Z" fill="black"/>
</g>
</svg>
